<svg viewBox="0 0 2000 414" xmlns="http://www.w3.org/2000/svg"><path d="m604 128.3q-37.9 0-37.91 25a19 19 0 0 0 9.39 17q9.39 5.91 44 17t48.52 25.31q13.92 14.08 13.91 43.3 0 37.22-22.6 56.32t-59.13 19.13q-27.12 0-66.42-8.35l-12.52-2.43 4.87-37.21q46.59 6.28 71.29 6.27 36.87 0 36.87-30.61c0-7.4-2.84-13.22-8.53-17.39s-17-8.69-33.9-13.56q-40.36-11.47-56.84-27.29t-16.53-44q0-35.46 21.56-52.85t59.12-17.39q25.74 0 65.39 7l12.46 2.39-3.81 37.94q-49.02-5.56-69.19-5.58z"/><path d="m762.94 327.2h-46.61v-243.41h46.61v138.39l17.73-3.13 34.43-65.72h52.17l-45.21 82.42 47.65 91.45h-52.52l-35.13-67.81-19.12 3.11z"/><path d="m939.1 283.22q8.17 7.13 23.46 7.14 32.36 0 57.74-2.09l9.75-1 .68 34.42q-40 9.74-72.34 9.74-39.3 0-57-20.87t-17.73-67.8q0-93.54 76.86-93.54 75.81 0 75.81 78.58l-3.46 32.34h-102.3q.35 15.94 8.53 23.08zm51.29-58.6q0-20.87-6.61-29t-23.12-8.16q-16.54 0-23.3 8.51t-7.14 28.68z"/><path d="m1166 193h-42.78v71.29c0 6.95.18 11.89.51 14.79a12 12 0 0 0 3.83 7.46q3.3 3.14 10.25 3.13l26.43-.69 2.09 37.19c-15.54 3.49-27.34 5.22-35.48 5.22q-31.29 0-42.77-14.1t-11.48-52v-72.35h-20.5v-39.61h20.5v-48.33h46.6v48.33h42.8z"/><path d="m1261.31 149.16q18.11 0 46.27 5.56l9.37 2.09-1.39 36.86q-27.46-2.78-40.69-2.78-24 0-31.81 10.26t-7.83 38.77q0 28.52 7.83 39.13t32.16 10.61l40.34-2.78 1.39 37.19q-37.2 7.32-56.68 7.3-38.61 0-55.48-21.72t-16.88-69.73q0-48 17.39-69.37t56.01-21.39z"/><path d="m1398 327.2h-46.61v-243.41h46.61v77.89q24-12.52 43.12-12.52 34.79 0 48 20.52t13.2 63.32v94.2h-46.6v-93.2q0-21.91-5.2-32.51t-20.87-10.61a92 92 0 0 0 -27.14 4.17l-4.51 1.39z"/><path d="m1598.66 193v134.2h-46.6v-134.2h-18.78v-39.67h18.78v-7.63q0-37.56 11.12-51.81t39.67-14.26q12.53 0 32.34 3.48l7.29 1-.7 37.9q-15.3-.69-25.73-.69t-13.91 5.56c-2.34 3.71-3.48 10.09-3.48 19.13v7.3h42.08v39.69z"/><path d="m1801.07 207.58v72.33c.46 5.58 1.39 9.45 2.78 11.66s4.29 3.77 8.7 4.68l-1.4 35.12q-17.73 0-28.35-2.42a63.92 63.92 0 0 1 -21.38-9.75 115.66 115.66 0 0 1 -51.12 12.17q-53.94 0-53.91-57 0-27.79 14.94-39.46t45.91-13.74l37.21-2.78v-10.81c0-7.19-1.64-12.1-4.87-14.79s-8.48-4-15.65-4l-65.38 2.78-1.39-32.34q37.2-10.08 70.76-10.08t48.34 13.91q14.84 13.94 14.81 44.52zm-78.25 45.9q-19.48 1.74-19.48 20.86t17 19.13a112.66 112.66 0 0 0 28.86-4.17l5.22-1.39v-37.21z"/><path d="m1929.73 149.16q36.52 0 53.39 20t16.88 71.47q0 51.44-19.48 71.1t-67.12 19.66q-15 0-54.62-3.48l-13.21-1.39v-242.73h46.6v74.76q22.26-9.39 37.56-9.39zm-16.33 140.5q23.31 0 31.3-11.31t8-40.52q0-46.94-29.22-46.93a98.3 98.3 0 0 0 -26.43 3.48l-4.87 1.05v92.84q15.99 1.39 21.22 1.39z"/><path d="m207 14.27c-106.72 0-193.2 86.51-193.2 193.19s86.49 193.19 193.2 193.19 193.22-86.5 193.22-193.19-86.49-193.19-193.22-193.19z" fill="#fff"/><path d="m207 0c-114.32 0-207 92.68-207 207s92.68 207 207 207 207-92.68 207-207-92.63-207-207-207zm-18 330.18-89.22-51.51v-103.93l89.22 48.26zm15.9-131.69-105.6-56 105.6-61 105.61 61zm105.7 80.37-88.91 51.34v-106.84l88.91-48z"/></svg>